<svg width="867" height="681" viewBox="0 0 867 681" fill="none" xmlns="http://www.w3.org/2000/svg">
<path d="M197.275 660.047C30.2805 631.143 -30.3352 533.593 15.4277 367.396C61.1905 201.198 144.688 91.2033 265.919 37.41C387.15 -16.3833 500.353 -11.5659 605.527 51.8619C710.701 115.29 790.585 223.278 845.18 375.826C899.774 528.374 847.187 621.107 687.418 654.025C527.65 686.944 364.269 688.951 197.275 660.047Z" fill="url(#paint0_linear)"/>
<path d="M265.362 567.123C205.99 556.862 165.64 534.435 144.168 499.931C122.694 465.425 120.023 418.714 136.294 359.708C168.848 241.66 228.216 163.615 314.351 125.453C400.525 87.2721 480.946 90.6997 555.672 135.698C630.424 180.711 687.237 257.368 726.078 365.737C745.489 419.893 745.803 463.315 727.186 496.096C708.568 528.877 670.938 551.158 614.131 562.845C500.449 586.233 384.194 587.66 265.362 567.123Z" stroke="white" stroke-opacity="0.15"/>
<path d="M326.177 485.173C288.315 478.617 262.624 464.294 248.959 442.293C235.293 420.289 233.578 390.48 243.955 352.775C264.72 277.329 302.579 227.48 357.482 203.106C412.426 178.715 463.685 180.907 511.316 209.646C558.974 238.401 595.208 287.377 619.986 356.643C632.364 391.248 632.549 418.951 620.705 439.847C608.861 460.743 584.907 474.971 548.679 482.439C476.155 497.389 401.989 498.301 326.177 485.173Z" stroke="white" stroke-opacity="0.15"/>
<defs>
<linearGradient id="paint0_linear" x1="1825.15" y1="0.381083" x2="1819.18" y2="808.95" gradientUnits="userSpaceOnUse">
<stop stop-color="#D562D7"/>
<stop offset="1" stop-color="#C558DB"/>
</linearGradient>
</defs>
</svg>
