<svg width="908" height="729" viewBox="0 0 908 729" fill="none" xmlns="http://www.w3.org/2000/svg">
<path d="M891.794 424.748C871.166 497.073 833.731 569.072 779.487 640.746C725.244 712.419 648.845 740.437 550.29 724.799C451.735 709.161 363.494 686.03 285.566 655.406C207.639 624.782 161.036 574.937 145.756 505.87C130.476 436.803 94.5683 366.432 38.0329 294.759C-18.5025 223.086 -12.0086 158.906 57.5147 102.219C127.038 45.5317 203.819 13.9303 287.858 7.41458C371.898 0.898829 448.297 2.85355 517.056 13.2788C585.815 23.704 831.439 -21.2548 891.794 13.2787C952.15 47.8121 821.507 163.141 861.998 224.389C902.49 285.637 912.422 352.424 891.794 424.748Z" fill="url(#paint0_linear)"/>
<path d="M795.346 399.525C779.239 455.976 750.008 512.173 707.653 568.116C665.297 624.058 605.642 645.927 528.687 633.721C451.731 621.515 382.829 603.461 321.981 579.558C261.132 555.656 224.743 516.75 212.812 462.842C200.88 408.934 172.842 354.008 128.698 298.066C84.5526 242.123 89.6233 192.029 143.91 147.784C198.196 103.538 258.15 78.8729 323.77 73.7872C389.391 68.7016 449.047 70.2273 502.736 78.3643C556.426 86.5015 748.218 51.4102 795.346 78.3643C842.474 105.318 740.463 195.335 772.08 243.14C803.698 290.946 811.453 343.074 795.346 399.525Z" fill="url(#paint1_linear)"/>
<path d="M794.865 399.388C778.778 455.769 749.579 511.911 707.254 567.814C686.128 595.717 660.701 615.107 630.973 626.004C601.241 636.903 567.177 639.32 528.765 633.227C451.839 621.026 382.973 602.98 322.164 579.093C261.437 555.238 225.188 516.448 213.3 462.734C201.348 408.734 173.269 353.741 129.09 297.756C107.064 269.844 97.3716 243.461 99.8893 218.589C102.407 193.718 117.144 170.244 144.226 148.171C198.438 103.986 258.296 79.363 323.809 74.2857C389.4 69.2024 449.016 70.7284 502.662 78.8587C516.147 80.9025 538.255 80.2294 564.513 78.5057C579.123 77.5465 595.048 76.2595 611.513 74.9289C624.642 73.8679 638.115 72.779 651.538 71.8066C681.811 69.6136 711.86 68.01 737.281 68.6372C749.992 68.9507 761.534 69.8217 771.362 71.4525C781.197 73.0844 789.281 75.4718 795.098 78.7983C800.895 82.1138 804.369 86.3776 806.108 91.3865C807.852 96.4091 807.867 102.227 806.655 108.667C804.228 121.562 796.919 136.77 789.081 152.713C788.722 153.441 788.363 154.172 788.003 154.903C780.503 170.143 772.718 185.961 768.523 200.881C764.127 216.518 763.64 231.285 771.663 243.416C803.198 291.097 810.933 343.073 794.865 399.388Z" stroke="white" stroke-opacity="0.15"/>
<path d="M715.785 378.794C703.507 421.869 681.226 464.75 648.941 507.438C616.656 550.125 571.184 566.811 512.525 557.498C453.867 548.184 401.347 534.408 354.965 516.169C308.584 497.93 280.846 468.243 271.752 427.108C262.658 385.973 241.286 344.062 207.637 301.375C173.988 258.688 177.853 220.464 219.232 186.702C260.611 152.941 306.311 134.119 356.33 130.239C406.349 126.358 451.82 127.522 492.745 133.731C533.67 139.94 628.276 127.896 664.199 148.464C700.122 169.031 673.95 222.986 698.051 259.464C722.151 295.942 728.062 335.719 715.785 378.794Z" fill="url(#paint2_linear)"/>
<path d="M715.304 378.657C703.046 421.662 680.797 464.489 648.542 507.136C632.451 528.411 613.088 543.192 590.451 551.499C567.811 559.807 541.868 561.65 512.604 557.004C453.974 547.695 401.49 533.927 355.148 515.704C308.889 497.513 281.292 467.941 272.24 427C263.126 385.774 241.712 343.795 208.029 301.066C191.252 279.782 183.881 259.68 185.796 240.742C187.711 221.806 198.92 203.92 219.548 187.09C260.854 153.388 306.458 134.61 356.368 130.737C406.357 126.859 451.79 128.023 492.67 134.226C502.942 135.784 516.561 136.195 531.746 136.261C538.287 136.289 545.112 136.253 552.09 136.216C561.34 136.167 570.86 136.117 580.343 136.213C596.966 136.381 613.415 136.998 627.946 138.854C642.487 140.712 655.057 143.806 663.951 148.898C681.651 159.032 684.098 177.381 685.059 198.021C685.163 200.259 685.25 202.524 685.337 204.807C686.051 223.484 686.811 243.36 697.633 259.74C721.651 296.093 727.542 335.718 715.304 378.657Z" stroke="white" stroke-opacity="0.15"/>
<defs>
<linearGradient id="paint0_linear" x1="-0.000753155" y1="-98.5501" x2="500.087" y2="-322.421" gradientUnits="userSpaceOnUse">
<stop stop-color="#D562D7"/>
<stop offset="1" stop-color="#C558DB"/>
</linearGradient>
<linearGradient id="paint1_linear" x1="98.9999" y1="-562.636" x2="942.061" y2="-552.758" gradientUnits="userSpaceOnUse">
<stop stop-color="#D562D7"/>
<stop offset="1" stop-color="#C558DB"/>
</linearGradient>
<linearGradient id="paint2_linear" x1="185" y1="-350.796" x2="823.539" y2="-343.332" gradientUnits="userSpaceOnUse">
<stop stop-color="#D562D7"/>
<stop offset="1" stop-color="#C558DB"/>
</linearGradient>
</defs>
</svg>
