<svg version="1.0" xmlns="http://www.w3.org/2000/svg" width="933.333" height="933.333" viewBox="0 0 700 700"><path d="M0 350v350h700V0H0v350zM657 43.1c.3.4.5 138.8.5 307.6v306.8h-615l-.1-307c0-168.9.1-307.2.2-307.5.4-.8 613.8-.7 614.4.1z"/><path d="M342 505.9c-11.2 2.5-23 12.4-27.1 22.8-1.8 4.6-2.3 7.8-2.4 15.3 0 8.6.3 10.1 3.1 16 11.9 25.1 44.6 30.4 63.5 10.3 22.5-23.9 6.5-63.8-26.1-64.9-4.1-.2-9.1.1-11 .5zm98.5.7c-6.9 2.1-15.2 7.9-19.7 13.9-8.4 11.1-10.1 27-4.2 39.5 3.9 8.3 10.7 15.1 19.2 19.1 5.8 2.8 7.7 3.2 15.2 3.3 9.6 0 15.7-1.7 22.6-6.5 23.1-15.9 22.4-50.3-1.4-65.3-8.6-5.4-21.4-7-31.7-4zm102.9-.7c-13.7 3.5-25.5 15.7-28.4 29-1.4 6.7-.8 18.2 1.2 22.8 12.6 29 49.1 33.7 68 8.8 9-11.8 9.8-29.2 2.2-42.3-4.8-8.2-14.7-15.9-22.8-17.9-3.9-.9-17.1-1.2-20.2-.4z"/></svg>