<?xml version="1.0" standalone="no"?>
<!DOCTYPE svg PUBLIC "-//W3C//DTD SVG 20010904//EN"
 "http://www.w3.org/TR/2001/REC-SVG-20010904/DTD/svg10.dtd">
<svg version="1.0" xmlns="http://www.w3.org/2000/svg"
 width="700.000000pt" height="700.000000pt" viewBox="0 0 700.000000 700.000000"
 preserveAspectRatio="xMidYMid meet">
<metadata>
Created by potrace 1.11, written by Peter Selinger 2001-2013
</metadata>
<g transform="translate(0.000000,700.000000) scale(0.100000,-0.100000)"
fill="#000000" stroke="none">
<path d="M0 3500 l0 -3500 3500 0 3500 0 0 3500 0 3500 -3500 0 -3500 0 0
-3500z m6570 3069 c3 -4 5 -1388 5 -3076 l0 -3068 -3075 0 -3075 0 -1 3070 c0
1689 1 3072 2 3075 4 8 6138 7 6144 -1z"/>
<path d="M3420 1941 c-112 -25 -230 -124 -271 -228 -18 -46 -23 -78 -24 -153
0 -86 3 -101 31 -160 119 -251 446 -304 635 -103 225 239 65 638 -261 649 -41
2 -91 -1 -110 -5z"/>
<path d="M4405 1934 c-69 -21 -152 -79 -197 -139 -84 -111 -101 -270 -42 -395
39 -83 107 -151 192 -191 58 -28 77 -32 152 -33 96 0 157 17 226 65 231 159
224 503 -14 653 -86 54 -214 70 -317 40z"/>
<path d="M5434 1941 c-137 -35 -255 -157 -284 -290 -14 -67 -8 -182 12 -228
126 -290 491 -337 680 -88 90 118 98 292 22 423 -48 82 -147 159 -228 179 -39
9 -171 12 -202 4z"/>
</g>
</svg>
