<svg width="867" height="681" fill="none" xmlns="http://www.w3.org/2000/svg"><path d="M197.275 660.047C30.28 631.143-30.335 533.593 15.428 367.396 61.19 201.198 144.688 91.203 265.919 37.41 387.15-16.383 500.353-11.566 605.527 51.862S790.585 223.278 845.18 375.826c54.594 152.548 2.007 245.281-157.762 278.199-159.768 32.919-323.149 34.926-490.143 6.022z" fill="url(#paint0_linear)"/><path d="M265.362 567.123c-59.372-10.261-99.722-32.688-121.194-67.192-21.474-34.506-24.145-81.217-7.874-140.223 32.554-118.048 91.922-196.093 178.057-234.255 86.174-38.18 166.595-34.753 241.321 10.245 74.752 45.013 131.565 121.67 170.406 230.039 19.411 54.156 19.725 97.578 1.108 130.359-18.618 32.781-56.248 55.062-113.055 66.749-113.682 23.388-229.937 24.815-348.769 4.278z" stroke="#fff" stroke-opacity=".15"/><path d="M326.177 485.173c-37.862-6.556-63.553-20.879-77.218-42.88-13.666-22.004-15.381-51.813-5.004-89.518 20.765-75.446 58.624-125.295 113.527-149.669 54.944-24.391 106.203-22.199 153.834 6.54 47.658 28.755 83.892 77.731 108.67 146.997 12.378 34.605 12.563 62.308.719 83.204-11.844 20.896-35.798 35.124-72.026 42.592-72.524 14.95-146.69 15.862-222.502 2.734z" stroke="#fff" stroke-opacity=".15"/><defs><linearGradient id="paint0_linear" x1="1825.15" y1=".381" x2="1819.18" y2="808.95" gradientUnits="userSpaceOnUse"><stop stop-color="#D562D7"/><stop offset="1" stop-color="#C558DB"/></linearGradient></defs></svg>