<svg width="908" height="729" fill="none" xmlns="http://www.w3.org/2000/svg"><path d="M891.794 424.748c-20.628 72.325-58.063 144.324-112.307 215.998-54.243 71.673-130.642 99.691-229.197 84.053-98.555-15.638-186.796-38.769-264.724-69.393-77.927-30.624-124.53-80.469-139.81-149.536-15.28-69.067-51.188-139.438-107.723-211.111s-50.042-135.853 19.482-192.54C127.038 45.532 203.819 13.93 287.858 7.415c84.04-6.516 160.439-4.561 229.198 5.864 68.759 10.425 314.383-34.534 374.738 0 60.356 34.533-70.287 149.862-29.796 211.11 40.492 61.248 50.424 128.035 29.796 200.359z" fill="url(#paint0_linear)"/><path d="M795.346 399.525c-16.107 56.451-45.338 112.648-87.693 168.591-42.356 55.942-102.011 77.811-178.966 65.605-76.956-12.206-145.858-30.26-206.706-54.163-60.849-23.902-97.238-62.808-109.169-116.716-11.932-53.908-39.97-108.834-84.114-164.776-44.145-55.943-39.075-106.037 15.212-150.282 54.286-44.246 114.24-68.911 179.86-73.997 65.621-5.085 125.277-3.56 178.966 4.577 53.69 8.137 245.482-26.954 292.61 0 47.128 26.954-54.883 116.971-23.266 164.776 31.618 47.806 39.373 99.934 23.266 156.385z" fill="url(#paint1_linear)"/><path d="M794.865 399.388c-16.087 56.381-45.286 112.523-87.611 168.426-21.126 27.903-46.553 47.293-76.281 58.19-29.732 10.899-63.796 13.316-102.208 7.223-76.926-12.201-145.792-30.247-206.601-54.134-60.727-23.855-96.976-62.645-108.864-116.359-11.952-54-40.031-108.993-84.21-164.978-22.026-27.912-31.718-54.295-29.2-79.167 2.517-24.871 17.254-48.345 44.336-70.418 54.212-44.185 114.07-68.808 179.583-73.885 65.591-5.084 125.207-3.558 178.853 4.573 13.485 2.044 35.593 1.37 61.851-.353 14.61-.96 30.535-2.246 47-3.577 13.129-1.061 26.602-2.15 40.025-3.122 30.273-2.193 60.322-3.797 85.743-3.17 12.711.314 24.253 1.185 34.081 2.816 9.835 1.631 17.919 4.019 23.736 7.345 5.797 3.316 9.271 7.58 11.01 12.588 1.744 5.023 1.759 10.841.547 17.281-2.427 12.895-9.736 28.103-17.574 44.046l-1.078 2.19c-7.5 15.24-15.285 31.058-19.48 45.978-4.396 15.637-4.883 30.404 3.14 42.535 31.535 47.681 39.27 99.657 23.202 155.972z" stroke="#fff" stroke-opacity=".15"/><path d="M715.785 378.794c-12.278 43.075-34.559 85.956-66.844 128.644-32.285 42.687-77.757 59.373-136.416 50.06-58.658-9.314-111.178-23.09-157.56-41.329-46.381-18.239-74.119-47.926-83.213-89.061-9.094-41.135-30.466-83.046-64.115-125.733-33.649-42.687-29.784-80.911 11.595-114.673 41.379-33.761 87.079-52.583 137.098-56.463 50.019-3.881 95.49-2.717 136.415 3.492s135.531-5.835 171.454 14.733c35.923 20.567 9.751 74.522 33.852 111 24.1 36.478 30.011 76.255 17.734 119.33z" fill="url(#paint2_linear)"/><path d="M715.304 378.657c-12.258 43.005-34.507 85.832-66.762 128.479-16.091 21.275-35.454 36.056-58.091 44.363-22.64 8.308-48.583 10.151-77.847 5.505-58.63-9.309-111.114-23.077-157.456-41.3-46.259-18.191-73.856-47.763-82.908-88.704-9.114-41.226-30.528-83.205-64.211-125.934-16.777-21.284-24.148-41.386-22.233-60.324 1.915-18.936 13.124-36.822 33.752-53.652 41.306-33.702 86.91-52.48 136.82-56.353 49.989-3.878 95.422-2.714 136.302 3.489 10.272 1.558 23.891 1.969 39.076 2.035 6.541.028 13.366-.008 20.344-.045 9.25-.049 18.77-.099 28.253-.003 16.623.168 33.072.785 47.603 2.641 14.541 1.858 27.111 4.952 36.005 10.044 17.7 10.134 20.147 28.483 21.108 49.123.104 2.238.191 4.503.278 6.786.714 18.677 1.474 38.553 12.296 54.933 24.018 36.353 29.909 75.978 17.671 118.917z" stroke="#fff" stroke-opacity=".15"/><defs><linearGradient id="paint0_linear" x1="-.001" y1="-98.55" x2="500.087" y2="-322.421" gradientUnits="userSpaceOnUse"><stop stop-color="#D562D7"/><stop offset="1" stop-color="#C558DB"/></linearGradient><linearGradient id="paint1_linear" x1="99" y1="-562.636" x2="942.061" y2="-552.758" gradientUnits="userSpaceOnUse"><stop stop-color="#D562D7"/><stop offset="1" stop-color="#C558DB"/></linearGradient><linearGradient id="paint2_linear" x1="185" y1="-350.796" x2="823.539" y2="-343.332" gradientUnits="userSpaceOnUse"><stop stop-color="#D562D7"/><stop offset="1" stop-color="#C558DB"/></linearGradient></defs></svg>